<svg width="150" height="150" viewBox="0 0 150 150" fill="none" xmlns="http://www.w3.org/2000/svg">
<path d="M99.5866 10.197L119.139 29.7527C119.535 30.4589 119.909 31.1866 120.272 31.9127C120.274 31.9288 120.282 31.9437 120.294 31.9542C120.304 31.9642 120.304 31.9642 120.304 31.9858C124.626 40.6893 126.841 50.2871 126.771 60.0045C126.7 69.7218 124.346 79.2864 119.899 87.9265C119.139 89.3919 118.329 90.8258 117.445 92.2297C117.437 92.2482 117.427 92.2654 117.415 92.2812C114.926 96.251 111.997 99.9267 108.683 103.239L108.236 103.686C113.173 97.9562 116.546 91.0484 118.029 83.6318C119.511 76.2153 119.052 68.5414 116.697 61.3543L116.687 61.3443C114.712 55.2943 111.443 49.7473 107.108 45.0884C102.772 40.4296 97.4743 36.7709 91.582 34.3667C90.2828 33.5243 88.9521 32.7334 87.5947 32.0057C87.0332 31.695 86.4317 31.3926 85.8586 31.1019C85.5047 30.9141 85.1408 30.738 84.787 30.5718C84.3617 30.3741 83.9347 30.1565 83.4878 29.9787C83.1871 29.8441 82.8747 29.6979 82.5524 29.5633C81.9709 29.3141 81.3678 29.0649 80.7648 28.814C80.0886 28.5548 79.424 28.284 78.7379 28.0564C78.3624 27.9317 78.0102 27.8055 77.6247 27.6925C77.2825 27.5562 76.8971 27.4416 76.5332 27.3286C76.1694 27.2156 75.774 27.0894 75.3802 26.9847C74.8187 26.7986 74.2472 26.6624 73.6856 26.5178C72.9164 26.3085 72.1372 26.1324 71.368 25.9446C71.3264 25.9662 71.3148 25.9562 71.2733 25.9346C70.4725 25.7585 69.6617 25.5924 68.8626 25.4777C68.0618 25.3215 67.2411 25.187 66.4187 25.0923C65.5963 24.9976 64.7972 24.8646 63.9665 24.8015C63.9104 24.8095 63.853 24.8027 63.8004 24.7816C63.0428 24.7085 62.2935 24.6453 61.5243 24.6254C60.7036 24.5739 59.9028 24.5423 59.0721 24.5423C58.2497 24.5107 57.439 24.5107 56.5966 24.5423C55.839 24.5523 55.0582 24.5838 54.2707 24.6453H54.1477C53.7424 24.6769 53.3254 24.6985 52.9316 24.74C52.5046 24.7699 52.0893 24.8131 51.6839 24.8646C50.8831 24.9377 50.0524 25.0408 49.24 25.1654C48.8147 25.2185 48.3877 25.27 47.9724 25.3531C47.557 25.4362 47.1301 25.5093 46.7147 25.5708C46.5386 25.6023 46.3725 25.6439 46.1947 25.6754C45.4471 25.82 44.6779 25.9878 43.9186 26.1639C43.0348 26.3616 42.1609 26.5893 41.2886 26.8401C40.9447 26.9332 40.6125 27.0163 40.2802 27.1409C39.9363 27.2339 39.6256 27.3386 39.2834 27.4532C38.9551 27.5418 38.6323 27.6495 38.3164 27.7756C37.5788 28.0148 36.8312 28.284 36.0918 28.5648C35.8742 28.6379 35.6449 28.721 35.4273 28.814C34.8973 29.0117 34.3873 29.251 33.8573 29.4786C33.7516 29.5102 33.6506 29.5553 33.5566 29.6132C33.1811 29.7577 32.8173 29.9139 32.4534 30.0917C32.0896 30.2695 31.7689 30.4024 31.4151 30.5901L31.3868 30.5885H31.3652C31.023 30.7446 30.6807 30.9208 30.3268 31.1085C29.7337 31.3893 29.1639 31.7116 28.5907 32.014L50.3897 10.2136C53.6168 6.97708 57.4504 4.40898 61.6713 2.65637C65.8921 0.90377 70.4172 0.00108132 74.9875 9.70872e-07C79.5576 -0.00107938 84.0832 0.899481 88.3049 2.65009C92.5265 4.4007 96.3615 6.96697 99.5899 10.2019L99.5866 10.197Z" fill="url(#paint0_linear_319_1323)"/>
<path d="M119.139 29.7578L139.785 50.4035C143.023 53.6312 145.592 57.4665 147.345 61.6891C149.098 65.9118 150 70.4389 150 75.011C150 79.583 149.098 84.1101 147.345 88.3328C145.592 92.5554 143.023 96.3907 139.785 99.6184L113.547 125.857C112.694 126.127 111.832 126.387 110.958 126.616L110.948 126.626C110.927 126.626 110.927 126.626 110.917 126.638C108.516 127.28 106.08 127.78 103.62 128.133C90.4623 130.047 77.0383 127.662 65.345 121.332C62.7074 119.914 60.1811 118.299 57.7874 116.499L57.7658 116.478C56.6327 115.637 55.5096 114.743 54.4297 113.806C62.729 118.203 72.2193 119.822 81.507 118.426C90.7944 117.031 99.3898 112.693 106.031 106.052C106.811 105.271 107.549 104.492 108.235 103.681L108.682 103.234C111.996 99.9218 114.926 96.2461 117.414 92.2763C117.427 92.2605 117.437 92.2433 117.444 92.2248C118.328 90.8209 119.139 89.387 119.898 87.9216C124.346 79.2816 126.7 69.717 126.77 59.9996C126.841 50.2822 124.625 40.6844 120.304 31.9809C120.304 31.9593 120.304 31.9593 120.294 31.9493C120.281 31.9388 120.273 31.9239 120.272 31.9078C119.908 31.1867 119.534 30.459 119.139 29.7578Z" fill="url(#paint1_linear_319_1323)"/>
<path d="M113.547 125.851L99.5914 139.808C93.0657 146.334 84.215 150 74.9863 150C65.7577 150 56.907 146.334 50.3813 139.808L29.1953 118.62C28.5407 117.135 27.9376 115.616 27.4077 114.088V114.046C27.1169 113.216 26.8461 112.385 26.6069 111.541C26.4507 111.032 26.3062 110.512 26.15 110.002C25.9008 109.005 25.6516 108.027 25.4422 107.03C25.2346 106.073 25.0369 105.128 24.8707 104.151C24.7046 103.174 24.58 102.195 24.4554 101.218C24.3308 100.241 24.2477 99.2641 24.1746 98.2971C24.1015 97.3301 24.05 96.3432 24.0284 95.3447C24.0068 94.3461 23.9985 93.3791 24.0284 92.3922C24.0699 90.4383 24.2062 88.4727 24.4338 86.5188C24.6531 84.5948 24.9754 82.6974 25.3691 80.8C25.3798 80.7506 25.3942 80.7025 25.4123 80.6554C25.6084 79.7101 25.8476 78.763 26.0769 77.8309C26.0998 77.7857 26.1139 77.7367 26.1184 77.6864L26.4922 76.3754C26.8245 75.2523 27.1784 74.1507 27.5738 73.0525C27.7499 72.5225 27.9576 72.0024 28.1553 71.4724C28.4062 70.8277 28.6653 70.1731 28.9361 69.5484C29.1953 68.9569 29.4661 68.3538 29.7353 67.7507L29.7469 67.7191C29.923 67.3552 30.0991 66.9714 30.2769 66.6076C30.536 66.0975 30.8069 65.5575 31.0876 65.0474C31.2626 64.6704 31.4566 64.3027 31.6691 63.9459C32.1576 63.0619 32.6659 62.178 33.2075 61.3257C33.2022 61.4126 33.1916 61.4991 33.176 61.5849C31.5899 66.5667 30.9002 71.7906 31.1391 77.0135C31.4885 84.6422 33.8196 92.0481 37.9029 98.5013C41.9863 104.955 47.6808 110.232 54.4251 113.814C55.505 114.751 56.6281 115.641 57.7611 116.485L57.7827 116.507C60.1764 118.306 62.7029 119.922 65.3403 121.34C77.0337 127.669 90.4576 130.054 103.615 128.141C106.075 127.788 108.512 127.288 110.912 126.645C110.922 126.634 110.922 126.634 110.944 126.634L110.954 126.624C111.832 126.381 112.695 126.124 113.547 125.851Z" fill="url(#paint2_linear_319_1323)"/>
<path d="M91.4353 34.2749C90.1892 33.4641 88.9 32.6948 87.6008 31.997C87.1738 31.7578 86.707 31.5185 86.2601 31.3009C86.0723 31.1978 85.9378 31.1247 85.8646 31.0932C85.5108 30.9054 85.1469 30.7293 84.7931 30.5632C84.3677 30.3654 83.9408 30.1478 83.4939 29.97C83.1931 29.8354 82.8808 29.6892 82.5585 29.5546C81.977 29.3054 81.3739 29.0562 80.7708 28.8053C80.0947 28.5461 79.4185 28.2869 78.744 28.0477C78.3685 27.923 78.0163 27.7968 77.6308 27.6838C77.2786 27.5592 76.9032 27.4329 76.5393 27.3199C76.1755 27.2069 75.7801 27.0807 75.3863 26.976C74.8248 26.7899 74.2532 26.6537 73.6917 26.5091C72.9225 26.2998 72.1433 26.1237 71.3741 25.9359C71.3325 25.9575 71.3209 25.9475 71.2794 25.9259C70.4686 25.7598 69.6678 25.6036 68.8687 25.469C68.0696 25.3344 67.2472 25.1982 66.4248 25.0836C65.6024 24.9689 64.8033 24.8759 63.9726 24.7928C63.9165 24.8009 63.8591 24.794 63.8065 24.7729C63.0373 24.7097 62.2896 24.6483 61.5304 24.6167C60.6997 24.5751 59.8989 24.5436 59.0782 24.5336C58.2575 24.5236 57.445 24.502 56.6027 24.5336C55.8451 24.5436 55.0643 24.5751 54.2768 24.6366H54.1472C53.7418 24.6682 53.3248 24.6898 52.9311 24.7313L51.6834 24.8559C50.8826 24.929 50.0519 25.0321 49.2395 25.1567C48.8241 25.2198 48.3988 25.2929 47.9718 25.3444C47.5449 25.3959 47.1295 25.5006 46.7142 25.5621C46.5381 25.5936 46.3719 25.6352 46.1942 25.6667C45.4465 25.8113 44.6773 25.9791 43.9181 26.1552C43.0342 26.3529 42.1603 26.5806 41.2881 26.8314C40.9442 26.9245 40.6119 27.0076 40.2796 27.1322C39.9357 27.2252 39.625 27.3299 39.2828 27.4445C38.9547 27.5333 38.6317 27.6409 38.3159 27.7669C37.5782 28.0061 36.8406 28.2653 36.0913 28.5561C35.8736 28.6292 35.6444 28.7123 35.4267 28.8053C34.8868 29.0146 34.3668 29.2223 33.8567 29.4699C33.7512 29.5015 33.6501 29.5468 33.556 29.6045C33.1805 29.749 32.8167 29.9052 32.4529 30.083C32.089 30.2608 31.7684 30.3937 31.4145 30.5814L31.3863 30.5881H31.3647C31.0224 30.7443 30.6802 30.9204 30.3263 31.1081C29.7332 31.3889 29.1633 31.7112 28.5901 32.0136L10.2004 50.403L10.1904 50.413C6.95973 53.6426 4.39696 57.4771 2.64845 61.6975C0.899967 65.9178 0 70.4414 0 75.0096C0 79.5779 0.899967 84.1015 2.64845 88.3218C4.39696 92.5422 6.95973 96.3767 10.1904 99.6063L29.2032 118.62C28.5386 117.103 27.9356 115.565 27.4056 114.015C26.7709 112.197 26.2426 110.359 25.7841 108.505C25.6578 108.027 25.5548 107.528 25.4518 107.03C25.2441 106.073 25.0464 105.127 24.8803 104.151C24.7141 103.174 24.5679 102.217 24.4649 101.218C24.3403 100.263 24.2357 99.284 24.1842 98.2971C24.1327 97.3101 24.0496 96.3315 24.038 95.3446C23.9964 94.3677 23.9964 93.3691 24.038 92.3921C24.0795 90.4382 24.2041 88.4627 24.4433 86.5188C24.6611 84.6081 24.9771 82.7098 25.3903 80.8315C25.3943 80.7719 25.4049 80.7127 25.4219 80.6554C25.608 79.7399 25.8156 78.846 26.0549 77.9422C26.8246 75.0789 27.7904 72.2722 28.9457 69.5417C29.2049 68.9502 29.4757 68.3471 29.7448 67.744L29.7564 67.7124C29.9325 67.3485 30.1086 66.9647 30.2864 66.6008C30.324 66.5452 30.3552 66.4855 30.3795 66.4231C30.6087 65.9446 30.8579 65.4877 31.0972 65.0407C31.2721 64.6639 31.4662 64.2962 31.6787 63.9391C32.1671 63.0552 32.6755 62.1713 33.2171 61.319C33.1972 61.4021 33.2071 61.4951 33.1855 61.5782C33.2387 61.4021 33.3002 61.2575 33.3417 61.0897L33.3733 61.0598C35.5073 54.6091 39.1286 48.7506 43.9446 43.9581C51.7882 36.0959 62.3272 31.51 73.4259 31.1297C73.478 31.1214 73.5314 31.1249 73.582 31.1397C77.0209 31.0249 80.4613 31.3183 83.8311 32.0136H83.8527C84.4342 32.1382 85.0157 32.2629 85.5988 32.4074C87.6368 32.9153 89.6357 33.5688 91.5798 34.363C91.53 34.3366 91.4816 34.3072 91.4353 34.2749Z" fill="url(#paint3_linear_319_1323)"/>
<g style="mix-blend-mode:multiply" opacity="0.08">
<g style="mix-blend-mode:multiply" opacity="0.08">
<path d="M100.531 11.1489L119.139 29.7576C125.603 41.4815 128.079 54.9901 126.192 68.2444C124.306 81.499 118.16 93.7804 108.682 103.235L108.235 103.682C113.172 97.9529 116.546 91.0451 118.028 83.6285C119.511 76.2118 119.052 68.538 116.697 61.3508C116.697 61.3292 116.687 61.3408 116.687 61.3408C115.74 47.4973 111.332 30.7196 100.531 11.1489Z" fill="black"/>
</g>
</g>
<g style="mix-blend-mode:multiply" opacity="0.08">
<g style="mix-blend-mode:multiply" opacity="0.08">
<path d="M125.657 113.741L113.547 125.851C103.485 129.064 92.7671 129.643 82.4176 127.534C72.068 125.424 62.432 120.697 54.4297 113.802C61.1917 117.388 68.7756 119.137 76.4248 118.876C92.9984 121.624 110.007 119.85 125.657 113.741Z" fill="black"/>
</g>
</g>
<g style="mix-blend-mode:multiply" opacity="0.08">
<g style="mix-blend-mode:multiply" opacity="0.08">
<path d="M33.214 61.314C33.2086 61.401 33.198 61.4876 33.1824 61.5733C31.5963 66.5551 30.9066 71.779 31.1455 77.0019C30.2833 89.1539 31.2386 106.307 38.0785 127.494L29.2017 118.616C28.1825 116.316 27.3177 113.951 26.6133 111.536C26.4571 111.028 26.3126 110.507 26.1564 109.997C25.9072 109.001 25.658 108.022 25.4487 107.025C25.241 106.068 25.0433 105.123 24.8771 104.146C24.711 103.169 24.5864 102.19 24.4618 101.213C24.3372 100.236 24.2541 99.259 24.181 98.2921C24.1079 97.3251 24.0564 96.3383 24.0348 95.3398C24.0132 94.3412 24.0049 93.3742 24.0348 92.3873C24.0764 90.4334 24.2126 88.4678 24.4402 86.5139C24.6595 84.5899 24.9818 82.6925 25.3756 80.7951C25.3862 80.7457 25.4006 80.6974 25.4187 80.6504C25.6148 79.705 25.854 78.7581 26.0833 77.826C26.1062 77.7808 26.1204 77.7318 26.1248 77.6813L26.4986 76.3704C26.8309 75.2472 27.1848 74.1456 27.5802 73.0474C27.7563 72.5174 27.964 71.9975 28.1617 71.4675C28.4126 70.8228 28.6717 70.1682 28.9425 69.5435C29.3679 68.5566 29.8148 67.5678 30.2833 66.6025C30.5425 66.0924 30.8133 65.5526 31.094 65.0425C31.269 64.6655 31.463 64.2978 31.6755 63.9409C32.1623 63.0504 32.6723 62.1663 33.214 61.314Z" fill="black"/>
</g>
</g>
<g style="mix-blend-mode:multiply" opacity="0.08">
<g style="mix-blend-mode:multiply" opacity="0.08">
<path d="M91.5813 34.3578C89.6372 33.5638 87.6384 32.9102 85.6003 32.4023C85.0378 32.1961 84.451 32.0636 83.8542 32.0085H83.8326C80.4628 31.3132 77.0225 31.0197 73.5836 31.1345C73.5329 31.1198 73.4796 31.1164 73.4274 31.1246C59.4469 30.7607 37.8457 34.0872 10.2036 50.398L28.5935 32.0085C29.165 31.7061 29.7365 31.3838 30.3296 31.103C30.6835 30.9169 31.0257 30.7391 31.368 30.5829C31.3796 30.573 31.4095 30.5829 31.4212 30.573C31.775 30.3852 32.1173 30.2307 32.4595 30.0745C32.8018 29.9183 33.1872 29.7424 33.5627 29.5962C33.6565 29.5384 33.7577 29.4932 33.8634 29.4616C34.3734 29.2223 34.8933 29.0145 35.4332 28.7968C35.6509 28.7038 35.8803 28.6209 36.0979 28.5478C36.8472 28.257 37.5847 27.9977 38.3224 27.7584C38.6382 27.6325 38.9612 27.5248 39.2893 27.4361C39.6332 27.3214 39.9439 27.2168 40.2861 27.1237C40.6186 26.9991 40.9507 26.916 41.2946 26.823C42.1668 26.5721 43.0409 26.3445 43.9247 26.1468C44.684 25.9706 45.453 25.803 46.2006 25.6584C46.3784 25.6269 46.5446 25.5853 46.7208 25.5538C47.1362 25.4923 47.5515 25.4092 47.9785 25.3361C48.4055 25.263 48.8308 25.2113 49.2461 25.1482C50.0585 25.0236 50.8891 24.9206 51.6899 24.8475L52.9377 24.723C53.3315 24.6815 53.7483 24.6597 54.1537 24.6282H54.2783C55.0674 24.5667 55.8485 24.5351 56.6044 24.5251C57.4467 24.4936 58.2656 24.4936 59.0797 24.5251C59.8938 24.5567 60.7012 24.5668 61.5319 24.6084C62.2911 24.6399 63.0389 24.7013 63.8081 24.7644C63.8608 24.7857 63.918 24.7925 63.9741 24.7845C64.8048 24.8676 65.6156 24.9722 66.4263 25.0753C67.2371 25.1783 68.0596 25.3145 68.8704 25.4607C69.6811 25.6069 70.4703 25.7513 71.281 25.9175C71.3226 25.9391 71.334 25.9492 71.3756 25.9276C72.1448 26.1154 72.924 26.2913 73.6934 26.5006C74.2549 26.6452 74.8264 26.7816 75.388 26.9677C75.7817 27.0724 76.1572 27.197 76.541 27.3116C76.9248 27.4263 77.2803 27.5507 77.6325 27.6753C78.018 27.7883 78.37 27.9147 78.7456 28.0394C79.42 28.2786 80.0963 28.5376 80.7725 28.7968C81.3756 29.0477 81.9785 29.2954 82.56 29.5463C82.8823 29.6809 83.1947 29.8271 83.4954 29.9617C83.9423 30.1395 84.3693 30.357 84.7946 30.5547C85.1484 30.7208 85.5123 30.8969 85.8662 31.0847C85.9393 31.1163 86.074 31.1894 86.2617 31.2924L87.4777 31.9887C88.9015 32.8111 90.8138 33.9127 91.4368 34.2666C91.4831 34.3 91.5313 34.3304 91.5813 34.3578Z" fill="black"/>
</g>
</g>
<g style="mix-blend-mode:multiply" opacity="0.25">
<g style="mix-blend-mode:multiply" opacity="0.25">
<path d="M110.948 126.622C110.926 126.622 110.926 126.622 110.916 126.634C108.516 127.277 106.079 127.776 103.619 128.129C90.4615 130.043 77.0376 127.658 65.3443 121.329C62.7066 119.911 60.1803 118.295 57.7866 116.496C57.9428 116.569 58.6804 116.994 59.8866 117.639C61.2273 118.376 63.1712 119.385 65.5204 120.463C66.7265 120.983 67.9942 121.565 69.3665 122.106C70.0526 122.397 70.7703 122.656 71.508 122.917C72.2456 123.178 72.9634 123.457 73.7326 123.706C75.261 124.236 76.861 124.673 78.4825 125.11C80.104 125.547 81.7886 125.921 83.4666 126.222C85.1413 126.566 86.8359 126.825 88.5089 127.023C90.1819 127.221 91.8317 127.377 93.4465 127.45C95.0614 127.523 96.6032 127.584 98.0835 127.574C99.5638 127.564 100.931 127.533 102.262 127.45C103.593 127.367 104.736 127.304 105.817 127.201C106.899 127.098 107.793 126.991 108.562 126.908C109.981 126.735 110.843 126.622 110.948 126.622Z" fill="black"/>
</g>
</g>
<g style="mix-blend-mode:multiply" opacity="0.25">
<g style="mix-blend-mode:multiply" opacity="0.25">
<path d="M120.303 31.9775C124.625 40.6809 126.84 50.2788 126.77 59.9962C126.699 69.7134 124.345 79.2781 119.898 87.9182C119.138 89.3836 118.328 90.8175 117.444 92.2215C117.517 92.0022 117.891 91.1299 118.505 89.7674C118.828 88.9882 119.368 88.0112 119.742 86.9512C120.147 85.8181 120.738 84.5487 121.165 83.1763C121.395 82.4901 121.634 81.774 121.893 81.0347C122.112 80.277 122.33 79.4961 122.569 78.6969C122.827 77.884 123.042 77.0582 123.214 76.223C123.402 75.369 123.651 74.5166 123.817 73.6228C123.983 72.7289 124.159 71.825 124.327 70.9095C124.495 69.9941 124.576 69.0586 124.721 68.1232C124.865 67.1878 124.95 66.2325 125.033 65.2754C125.116 64.3184 125.221 63.3631 125.209 62.3961C125.241 61.4291 125.324 60.4721 125.324 59.5151C125.324 58.558 125.292 57.5927 125.282 56.6473C125.138 54.7549 125.116 52.8841 124.857 51.0847C124.701 49.2869 124.368 47.5606 124.129 45.9075C123.963 45.0967 123.785 44.2958 123.631 43.5382C123.504 42.7883 123.338 42.0457 123.132 41.3134C122.759 39.8995 122.446 38.5886 122.082 37.4555C121.719 36.3223 121.459 35.2955 121.137 34.493C120.667 33.1522 120.386 32.25 120.303 31.9775Z" fill="black"/>
</g>
</g>
<g style="mix-blend-mode:multiply" opacity="0.25">
<g style="mix-blend-mode:multiply" opacity="0.25">
<path d="M29.7402 67.7397L28.8264 71.0627C28.4941 72.1643 28.2432 73.2875 27.9625 74.4007C27.6817 75.5139 27.4541 76.6354 27.2049 77.7369L27.1102 78.1639L27.0487 78.5378L26.8925 79.4001L26.7463 80.2524L26.6749 80.6794L26.6433 80.8771C26.6458 80.8589 26.6423 80.8401 26.6334 80.824L26.6217 81.0217L26.0718 85.212L25.9256 86.2504L25.8741 86.5112L25.8642 86.6043L25.8525 86.6143L25.8642 86.6259V86.6458L25.8525 86.699L25.8226 87.1659L25.708 89.276C25.6664 89.9838 25.6349 90.6799 25.5618 91.3761L25.4887 92.4261L25.4687 93.3832L25.4588 95.4301C25.4887 96.1279 25.4887 96.8341 25.5003 97.5302L25.5103 98.0603V98.1849L25.5003 98.1965L25.5103 98.2264L25.5003 98.258L25.5302 98.5188L25.5933 99.5789L25.6548 100.619L25.6764 101.096L25.7179 101.616L25.8941 103.726L26.1433 105.765L26.2579 106.815L26.4041 107.833C26.4456 108.456 26.6334 109.206 26.7463 109.882C26.9972 111.252 27.2248 112.646 27.4109 114.035C27.1202 113.205 26.8494 112.374 26.6101 111.53C26.4539 111.022 26.3094 110.501 26.1532 109.991C25.904 108.995 25.6548 108.016 25.4455 107.019C25.2378 106.062 25.0401 105.117 24.874 104.14C24.7078 103.163 24.5832 102.184 24.4586 101.207C24.334 100.23 24.2509 99.2532 24.1778 98.2862C24.1047 97.3192 24.0532 96.3323 24.0316 95.3338C24.01 94.3352 24.0017 93.3682 24.0316 92.3813C24.0732 90.4274 24.2094 88.4618 24.437 86.5079C24.6563 84.5839 24.9786 82.6865 25.3724 80.7891C25.383 80.7399 25.3975 80.6915 25.4156 80.6445C25.6116 79.6991 25.8509 78.7521 26.0801 77.82C26.1031 77.775 26.1172 77.7258 26.1217 77.6754L26.4955 76.3645C26.8278 75.2414 27.1816 74.1398 27.577 73.0416C27.7531 72.5115 27.9608 71.9915 28.1585 71.4615C28.4094 70.8168 28.6686 70.1622 28.9394 69.5375C29.2002 68.946 29.471 68.3429 29.7402 67.7397Z" fill="black"/>
</g>
</g>
<g style="mix-blend-mode:multiply" opacity="0.25">
<g style="mix-blend-mode:multiply" opacity="0.25">
<path d="M82.5559 29.5545C81.589 29.2936 80.6638 29.0344 79.6969 28.7952L78.9808 28.619C78.72 28.5459 78.5439 28.4944 78.283 28.4413L76.8491 28.109L75.4354 27.7966L73.98 27.5058L71.3717 27.0174H71.3285C71.2482 27.0174 71.1685 27.0072 71.0907 26.9875C71.0819 26.9802 71.0708 26.976 71.0592 26.9758L71.0494 26.9659L69.2601 26.7366C68.9494 26.695 68.6684 26.6435 68.3561 26.6236L67.4408 26.5189L66.5171 26.4043L66.1215 26.3627L65.653 26.3112L63.97 26.165H63.9287C63.8866 26.1599 63.8443 26.1599 63.8024 26.165C63.7409 26.165 63.6894 26.1551 63.5947 26.1451C62.8471 26.1235 62.0993 26.062 61.3818 26.0304L59.0424 25.9789L56.6518 25.9989L54.3442 26.0819H54.2809L54.2711 26.072L54.2611 26.0819C53.6879 26.1135 53.1164 26.1451 52.5249 26.1966L51.6826 26.2896L50.8087 26.3727L49.0626 26.5389L48.1887 26.6435L47.3479 26.7582C47.0455 26.8097 46.8065 26.8412 46.4958 26.9027L45.6732 27.039L44.8012 27.1835L44.3642 27.2467C44.3068 27.2636 44.2478 27.2741 44.1881 27.2782L43.9687 27.3297L42.2325 27.672L40.5711 28.0259L40.5298 28.0475C39.9998 28.1605 39.4698 28.2751 38.9182 28.4313L37.2651 28.8583L35.6237 29.2936L33.9922 29.7921L33.9389 29.802L33.6997 29.8751L33.6699 29.8851C32.9422 30.1144 32.1614 30.332 31.4138 30.5813C31.7676 30.3935 32.1099 30.239 32.4521 30.0828C32.7944 29.9266 33.1798 29.7505 33.5553 29.6043C33.6491 29.5467 33.7503 29.5015 33.856 29.4697C34.366 29.2305 34.8859 29.0228 35.4258 28.8051C35.6435 28.7121 35.8729 28.629 36.0906 28.5559C36.8398 28.2651 37.5773 28.006 38.315 27.7667C38.6308 27.6408 38.9538 27.5331 39.2819 27.4444C39.6258 27.3297 39.9367 27.2251 40.2789 27.132C40.6112 27.0074 40.9433 26.9243 41.2872 26.8313C42.1594 26.5804 43.0335 26.3528 43.9173 26.1551C44.6766 25.9789 45.4458 25.8111 46.1934 25.6666C46.3712 25.635 46.5373 25.5935 46.7134 25.5619C47.1288 25.5004 47.544 25.4174 47.9709 25.3442C48.3979 25.2711 48.8232 25.2196 49.2386 25.1565C50.051 25.0319 50.8818 24.9289 51.6826 24.8558L52.9302 24.7312C53.3239 24.6896 53.7411 24.668 54.1465 24.6365H54.2711C55.0602 24.575 55.8409 24.5434 56.5968 24.5334C57.4391 24.5019 58.2584 24.5019 59.0725 24.5334C59.8865 24.565 60.6938 24.575 61.5245 24.6165C62.2837 24.6481 63.0314 24.7096 63.8006 24.7727C63.8532 24.794 63.9106 24.8008 63.9669 24.7926C64.7976 24.8757 65.6082 24.9804 66.4189 25.0834C67.2297 25.1864 68.0522 25.3226 68.863 25.4689C69.6737 25.6151 70.4627 25.7596 71.2735 25.9258C71.315 25.9474 71.3268 25.9573 71.3683 25.9357C72.1376 26.1235 72.9168 26.2996 73.686 26.509C74.2475 26.6535 74.8189 26.7897 75.3804 26.9758C75.7742 27.0805 76.1496 27.2051 76.5334 27.3198C76.9172 27.4344 77.2729 27.559 77.6251 27.6836C78.0106 27.7966 78.3628 27.9229 78.7382 28.0475C79.4128 28.2867 80.0889 28.5459 80.7651 28.8051C81.3732 29.056 81.9761 29.3052 82.5559 29.5545Z" fill="black"/>
</g>
</g>
<g style="mix-blend-mode:screen" opacity="0.4">
<g style="mix-blend-mode:screen" opacity="0.4">
<path d="M25.8515 86.7023C25.8416 86.6707 25.8632 86.6491 25.8515 86.6392L25.8632 86.6491L25.8515 86.7023Z" fill="white"/>
</g>
</g>
<g style="mix-blend-mode:screen" opacity="0.4">
<g style="mix-blend-mode:screen" opacity="0.4">
<path d="M63.0985 25.9575L63.7016 26.1453H63.5969C63.4211 26.1125 63.2524 26.0489 63.0985 25.9575Z" fill="white"/>
</g>
</g>
<g style="mix-blend-mode:screen" opacity="0.4">
<g style="mix-blend-mode:screen" opacity="0.4">
<path d="M70.8002 26.8833L70.9464 26.9448C70.896 26.9285 70.847 26.9079 70.8002 26.8833Z" fill="white"/>
</g>
</g>
<g style="mix-blend-mode:screen" opacity="0.4">
<g style="mix-blend-mode:screen" opacity="0.4">
<path d="M71.1036 26.9761L71.8513 26.8931C71.78 26.9321 71.7032 26.9602 71.6236 26.9761C71.5436 27.0037 71.4593 27.0178 71.3744 27.0177H71.3312L71.1036 26.9761Z" fill="white"/>
</g>
</g>
<defs>
<linearGradient id="paint0_linear_319_1323" x1="516.552" y1="540.41" x2="516.552" y2="446.782" gradientUnits="userSpaceOnUse">
<stop stop-color="#00F3FF"/>
<stop offset="0.238" stop-color="#00EFFC"/>
<stop offset="0.44" stop-color="#00E5F4"/>
<stop offset="0.629" stop-color="#00D3E7"/>
<stop offset="0.81" stop-color="#00BAD4"/>
<stop offset="0.983" stop-color="#009BBC"/>
<stop offset="1" stop-color="#0098BA"/>
</linearGradient>
<linearGradient id="paint1_linear_319_1323" x1="447.701" y1="528.908" x2="546.043" y2="528.908" gradientUnits="userSpaceOnUse">
<stop stop-color="#49A09D"/>
<stop offset="0.149" stop-color="#4A989B"/>
<stop offset="0.375" stop-color="#4E8396"/>
<stop offset="0.65" stop-color="#54618E"/>
<stop offset="0.96" stop-color="#5D3283"/>
<stop offset="1" stop-color="#5F2C82"/>
</linearGradient>
<linearGradient id="paint2_linear_319_1323" x1="450.21" y1="465.325" x2="450.21" y2="559.497" gradientUnits="userSpaceOnUse">
<stop stop-color="#3E6896"/>
<stop offset="0.247" stop-color="#355881"/>
<stop offset="0.75" stop-color="#1F324E"/>
<stop offset="1" stop-color="#131D32"/>
</linearGradient>
<linearGradient id="paint3_linear_319_1323" x1="524.203" y1="465.297" x2="428.044" y2="465.297" gradientUnits="userSpaceOnUse">
<stop stop-color="#233B55"/>
<stop offset="1" stop-color="#131D32"/>
</linearGradient>
</defs>
</svg>
